<?xml version="1.0" encoding="utf-8"?>
<!-- Generator: Adobe Illustrator 19.0.0, SVG Export Plug-In . SVG Version: 6.00 Build 0)  -->
<svg version="1.1" id="Слой_1" xmlns="http://www.w3.org/2000/svg" xmlns:xlink="http://www.w3.org/1999/xlink" x="0px" y="0px"
	 viewBox="0 0 18 18" style="enable-background:new 0 0 18 18;" xml:space="preserve">
<style type="text/css">
	.st0{fill:#5ca3e1;}
</style>
<path class="st0" d="M18,16.2l-4.7-4.7c0.9-1.2,1.4-2.7,1.4-4.3c0-4-3.3-7.3-7.4-7.3C3.3,0,0,3.3,0,7.3c0,4,3.3,7.3,7.4,7.3
	c1.5,0,3-0.5,4.1-1.3l4.7,4.7L18,16.2z M2.2,7.3c0-2.8,2.3-5.2,5.2-5.2c2.9,0,5.2,2.3,5.2,5.2s-2.3,5.2-5.2,5.2
	C4.5,12.5,2.2,10.1,2.2,7.3z"/>
</svg>